<svg width="672" height="126" viewBox="0 0 672 126" fill="none" xmlns="http://www.w3.org/2000/svg">
<path d="M37.2311 36.0068H25.202L20.5781 51.4609H32.6071L37.2311 36.0068Z" fill="white"/>
<path d="M43.0673 53.7131H0V65.7422H39.4679L43.0673 53.7131Z" fill="white"/>
<path d="M59.5107 53.7131L55.9121 65.7422H67.9075V53.7131H59.5107Z" fill="white"/>
<path d="M51.7342 72.1992L62.5637 36.0008H50.5353L39.7051 72.1992H51.7342Z" fill="white"/>
<path d="M30.1465 104.035H42.1756L46.7995 88.581H34.7704L30.1465 104.035Z" fill="white"/>
<path d="M11.507 74.4318H0V86.4609H7.90821L11.507 74.4318Z" fill="white"/>
<path d="M24.4453 86.4609H68.0001V74.4318H28.0439L24.4453 86.4609Z" fill="white"/>
<path d="M15.7425 67.8367L4.91211 104.035H16.9412L27.7712 67.8367H15.7425Z" fill="white"/>
<rect x="491" y="36" width="181" height="67" rx="10" fill="white"/>
<path d="M102.7 100L84.6 51.7H97.8L109.6 86.8L105.6 86.9L117.7 51.7H127.2L139.3 86.9L135.3 86.8L147.1 51.7H160.3L142.3 100H132.8L120.6 66.6H124.3L112.1 100H102.7ZM185.681 101C180.615 101 176.115 99.9333 172.181 97.8C168.248 95.6 165.115 92.6 162.781 88.8C160.515 85 159.381 80.6667 159.381 75.8C159.381 71 160.481 66.7333 162.681 63C164.948 59.2 168.015 56.2 171.881 54C175.748 51.7333 180.048 50.6 184.781 50.6C189.448 50.6 193.548 51.6667 197.081 53.8C200.681 55.8667 203.481 58.7333 205.481 62.4C207.548 66 208.581 70.1 208.581 74.7C208.581 75.5667 208.515 76.4667 208.381 77.4C208.315 78.2667 208.148 79.2667 207.881 80.4L167.281 80.5V70.7L201.781 70.6L196.481 74.7C196.348 71.8333 195.815 69.4333 194.881 67.5C194.015 65.5667 192.715 64.1 190.981 63.1C189.315 62.0333 187.248 61.5 184.781 61.5C182.181 61.5 179.915 62.1 177.981 63.3C176.048 64.4333 174.548 66.0667 173.481 68.2C172.481 70.2667 171.981 72.7333 171.981 75.6C171.981 78.5333 172.515 81.1 173.581 83.3C174.715 85.4333 176.315 87.1 178.381 88.3C180.448 89.4333 182.848 90 185.581 90C188.048 90 190.281 89.6 192.281 88.8C194.281 87.9333 196.015 86.6667 197.481 85L205.181 92.7C202.848 95.4333 199.981 97.5 196.581 98.9C193.248 100.3 189.615 101 185.681 101ZM240.483 101C237.016 101 233.883 100.267 231.083 98.8C228.283 97.3333 226.049 95.3333 224.383 92.8C222.716 90.2667 221.816 87.4333 221.683 84.3V67.1C221.816 63.9667 222.716 61.1667 224.383 58.7C226.116 56.1667 228.383 54.2 231.183 52.8C233.983 51.4 237.083 50.7 240.483 50.7C244.949 50.7 248.949 51.8 252.483 54C256.016 56.2 258.783 59.2 260.783 63C262.849 66.8 263.883 71.1 263.883 75.9C263.883 80.6333 262.849 84.9 260.783 88.7C258.783 92.5 256.016 95.5 252.483 97.7C248.949 99.9 244.949 101 240.483 101ZM213.683 100V27.7H226.783V63.6L224.583 75.2L226.683 87V100H213.683ZM238.283 88.9C240.683 88.9 242.783 88.3667 244.583 87.3C246.449 86.1667 247.883 84.6333 248.883 82.7C249.949 80.7 250.483 78.4 250.483 75.8C250.483 73.2667 249.949 71.0333 248.883 69.1C247.883 67.1 246.449 65.5667 244.583 64.5C242.716 63.3667 240.583 62.8 238.183 62.8C235.783 62.8 233.649 63.3667 231.783 64.5C229.983 65.5667 228.549 67.1 227.483 69.1C226.483 71.0333 225.983 73.2667 225.983 75.8C225.983 78.4 226.483 80.7 227.483 82.7C228.549 84.6333 230.016 86.1667 231.883 87.3C233.749 88.3667 235.883 88.9 238.283 88.9ZM301.972 100V72.3C301.972 69.4333 301.072 67.1 299.272 65.3C297.472 63.5 295.139 62.6 292.272 62.6C290.405 62.6 288.739 63 287.272 63.8C285.805 64.6 284.639 65.7333 283.772 67.2C282.972 68.6667 282.572 70.3667 282.572 72.3L277.472 69.7C277.472 65.9 278.272 62.6 279.872 59.8C281.472 56.9333 283.672 54.7 286.472 53.1C289.339 51.5 292.605 50.7 296.272 50.7C299.939 50.7 303.172 51.5 305.972 53.1C308.839 54.7 311.072 56.9 312.672 59.7C314.272 62.5 315.072 65.7333 315.072 69.4V100H301.972ZM269.472 100V27.7H282.572V100H269.472ZM342.824 101C338.424 101 334.458 99.9 330.924 97.7C327.391 95.5 324.624 92.5 322.624 88.7C320.624 84.9 319.624 80.6333 319.624 75.9C319.624 71.1 320.624 66.8 322.624 63C324.624 59.2 327.391 56.2 330.924 54C334.458 51.8 338.424 50.7 342.824 50.7C346.291 50.7 349.391 51.4 352.124 52.8C354.858 54.2 357.024 56.1667 358.624 58.7C360.291 61.1667 361.191 63.9667 361.324 67.1V84.5C361.191 87.7 360.291 90.5333 358.624 93C357.024 95.4667 354.858 97.4333 352.124 98.9C349.391 100.3 346.291 101 342.824 101ZM345.224 88.9C348.891 88.9 351.858 87.7 354.124 85.3C356.391 82.8333 357.524 79.6667 357.524 75.8C357.524 73.2667 356.991 71.0333 355.924 69.1C354.924 67.1 353.491 65.5667 351.624 64.5C349.824 63.3667 347.691 62.8 345.224 62.8C342.824 62.8 340.691 63.3667 338.824 64.5C337.024 65.5667 335.591 67.1 334.524 69.1C333.524 71.0333 333.024 73.2667 333.024 75.8C333.024 78.4 333.524 80.7 334.524 82.7C335.591 84.6333 337.024 86.1667 338.824 87.3C340.691 88.3667 342.824 88.9 345.224 88.9ZM356.824 100V87L358.924 75.2L356.824 63.6V51.7H369.824V100H356.824ZM395.013 101.1C392.28 101.1 389.58 100.733 386.913 100C384.313 99.2667 381.913 98.2667 379.713 97C377.513 95.6667 375.613 94.0667 374.013 92.2L381.813 84.3C383.48 86.1667 385.413 87.5667 387.613 88.5C389.813 89.4333 392.247 89.9 394.913 89.9C397.047 89.9 398.647 89.6 399.713 89C400.847 88.4 401.413 87.5 401.413 86.3C401.413 84.9667 400.813 83.9333 399.613 83.2C398.48 82.4667 396.98 81.8667 395.113 81.4C393.247 80.8667 391.28 80.3 389.213 79.7C387.213 79.0333 385.28 78.2 383.413 77.2C381.547 76.1333 380.013 74.7 378.813 72.9C377.68 71.0333 377.113 68.6333 377.113 65.7C377.113 62.6333 377.847 59.9667 379.313 57.7C380.847 55.4333 383.013 53.6667 385.813 52.4C388.613 51.1333 391.913 50.5 395.713 50.5C399.713 50.5 403.313 51.2 406.513 52.6C409.78 54 412.48 56.1 414.613 58.9L406.713 66.8C405.247 65 403.58 63.7 401.713 62.9C399.913 62.1 397.947 61.7 395.813 61.7C393.88 61.7 392.38 62 391.313 62.6C390.313 63.2 389.813 64.0333 389.813 65.1C389.813 66.3 390.38 67.2333 391.513 67.9C392.713 68.5667 394.247 69.1667 396.113 69.7C397.98 70.1667 399.913 70.7333 401.913 71.4C403.98 72 405.913 72.8667 407.713 74C409.58 75.1333 411.08 76.6333 412.213 78.5C413.413 80.3667 414.013 82.7667 414.013 85.7C414.013 90.4333 412.313 94.2 408.913 97C405.513 99.7333 400.88 101.1 395.013 101.1ZM452.347 100V72.3C452.347 69.4333 451.447 67.1 449.647 65.3C447.847 63.5 445.514 62.6 442.647 62.6C440.78 62.6 439.114 63 437.647 63.8C436.18 64.6 435.014 65.7333 434.147 67.2C433.347 68.6667 432.947 70.3667 432.947 72.3L427.847 69.7C427.847 65.9 428.647 62.6 430.247 59.8C431.847 56.9333 434.047 54.7 436.847 53.1C439.714 51.5 442.98 50.7 446.647 50.7C450.314 50.7 453.547 51.5 456.347 53.1C459.214 54.7 461.447 56.9 463.047 59.7C464.647 62.5 465.447 65.7333 465.447 69.4V100H452.347ZM419.847 100V27.7H432.947V100H419.847Z" fill="white"/>
<path d="M509.96 89V50.335H515.185L517.44 57.815V89H509.96ZM536.69 89L513.755 59.3L515.185 50.335L538.12 80.035L536.69 89ZM536.69 89L534.545 81.74V50.335H542.08V89H536.69ZM559.986 89.55C557.309 89.55 554.889 88.945 552.726 87.735C550.599 86.4883 548.894 84.82 547.611 82.73C546.364 80.6033 545.741 78.2383 545.741 75.635C545.741 73.0317 546.364 70.7033 547.611 68.65C548.858 66.56 550.563 64.91 552.726 63.7C554.889 62.4533 557.291 61.83 559.931 61.83C562.644 61.83 565.064 62.4533 567.191 63.7C569.354 64.91 571.059 66.56 572.306 68.65C573.553 70.7033 574.176 73.0317 574.176 75.635C574.176 78.2383 573.553 80.6033 572.306 82.73C571.059 84.82 569.354 86.4883 567.191 87.735C565.064 88.945 562.663 89.55 559.986 89.55ZM559.931 82.84C561.288 82.84 562.479 82.5467 563.506 81.96C564.569 81.3367 565.376 80.4933 565.926 79.43C566.513 78.33 566.806 77.0833 566.806 75.69C566.806 74.2967 566.513 73.0683 565.926 72.005C565.339 70.9417 564.533 70.1167 563.506 69.53C562.479 68.9067 561.288 68.595 559.931 68.595C558.611 68.595 557.438 68.9067 556.411 69.53C555.384 70.1167 554.578 70.9417 553.991 72.005C553.404 73.0683 553.111 74.2967 553.111 75.69C553.111 77.0833 553.404 78.33 553.991 79.43C554.578 80.4933 555.384 81.3367 556.411 81.96C557.438 82.5467 558.611 82.84 559.931 82.84ZM588.384 89.55C585.928 89.55 583.728 88.945 581.784 87.735C579.841 86.525 578.301 84.875 577.164 82.785C576.064 80.695 575.514 78.3483 575.514 75.745C575.514 73.105 576.064 70.74 577.164 68.65C578.301 66.56 579.823 64.91 581.729 63.7C583.673 62.49 585.891 61.885 588.384 61.885C590.291 61.885 591.996 62.27 593.499 63.04C595.039 63.81 596.268 64.8917 597.184 66.285C598.138 67.6417 598.651 69.1817 598.724 70.905V80.365C598.651 82.0883 598.156 83.6467 597.239 85.04C596.323 86.4333 595.094 87.5333 593.554 88.34C592.014 89.1467 590.291 89.55 588.384 89.55ZM589.594 82.895C590.951 82.895 592.124 82.6017 593.114 82.015C594.141 81.3917 594.929 80.5483 595.479 79.485C596.066 78.385 596.359 77.12 596.359 75.69C596.359 74.2967 596.066 73.0683 595.479 72.005C594.929 70.905 594.141 70.0617 593.114 69.475C592.124 68.8517 590.969 68.54 589.649 68.54C588.293 68.54 587.101 68.8517 586.074 69.475C585.084 70.0983 584.296 70.9417 583.709 72.005C583.159 73.0683 582.884 74.2967 582.884 75.69C582.884 77.12 583.159 78.385 583.709 79.485C584.296 80.5483 585.103 81.3917 586.129 82.015C587.156 82.6017 588.311 82.895 589.594 82.895ZM603.124 89H595.974V81.85L597.129 75.36L595.919 68.98V49.235H603.124V89ZM620.553 89.55C617.767 89.55 615.292 88.9633 613.128 87.79C610.965 86.58 609.242 84.93 607.958 82.84C606.712 80.75 606.088 78.3667 606.088 75.69C606.088 73.05 606.693 70.7033 607.903 68.65C609.15 66.56 610.837 64.91 612.963 63.7C615.09 62.4533 617.455 61.83 620.058 61.83C622.625 61.83 624.88 62.4167 626.823 63.59C628.803 64.7267 630.343 66.3033 631.443 68.32C632.58 70.3 633.148 72.555 633.148 75.085C633.148 75.5617 633.112 76.0567 633.038 76.57C633.002 77.0467 632.91 77.5967 632.763 78.22L610.433 78.275V72.885L629.408 72.83L626.493 75.085C626.42 73.5083 626.127 72.1883 625.613 71.125C625.137 70.0617 624.422 69.255 623.468 68.705C622.552 68.1183 621.415 67.825 620.058 67.825C618.628 67.825 617.382 68.155 616.318 68.815C615.255 69.4383 614.43 70.3367 613.843 71.51C613.293 72.6467 613.018 74.0033 613.018 75.58C613.018 77.1933 613.312 78.605 613.898 79.815C614.522 80.9883 615.402 81.905 616.538 82.565C617.675 83.1883 618.995 83.5 620.498 83.5C621.855 83.5 623.083 83.28 624.183 82.84C625.283 82.3633 626.237 81.6667 627.043 80.75L631.278 84.985C629.995 86.4883 628.418 87.625 626.548 88.395C624.715 89.165 622.717 89.55 620.553 89.55ZM645.084 89.605C643.581 89.605 642.096 89.4033 640.629 89C639.199 88.5967 637.879 88.0467 636.669 87.35C635.459 86.6167 634.414 85.7367 633.534 84.71L637.824 80.365C638.741 81.3917 639.804 82.1617 641.014 82.675C642.224 83.1883 643.563 83.445 645.029 83.445C646.203 83.445 647.083 83.28 647.669 82.95C648.293 82.62 648.604 82.125 648.604 81.465C648.604 80.7317 648.274 80.1633 647.614 79.76C646.991 79.3567 646.166 79.0267 645.139 78.77C644.113 78.4767 643.031 78.165 641.894 77.835C640.794 77.4683 639.731 77.01 638.704 76.46C637.678 75.8733 636.834 75.085 636.174 74.095C635.551 73.0683 635.239 71.7483 635.239 70.135C635.239 68.4483 635.643 66.9817 636.449 65.735C637.293 64.4883 638.484 63.5167 640.024 62.82C641.564 62.1233 643.379 61.775 645.469 61.775C647.669 61.775 649.649 62.16 651.409 62.93C653.206 63.7 654.691 64.855 655.864 66.395L651.519 70.74C650.713 69.75 649.796 69.035 648.769 68.595C647.779 68.155 646.698 67.935 645.524 67.935C644.461 67.935 643.636 68.1 643.049 68.43C642.499 68.76 642.224 69.2183 642.224 69.805C642.224 70.465 642.536 70.9783 643.159 71.345C643.819 71.7117 644.663 72.0417 645.689 72.335C646.716 72.5917 647.779 72.9033 648.879 73.27C650.016 73.6 651.079 74.0767 652.069 74.7C653.096 75.3233 653.921 76.1483 654.544 77.175C655.204 78.2017 655.534 79.5217 655.534 81.135C655.534 83.7383 654.599 85.81 652.729 87.35C650.859 88.8533 648.311 89.605 645.084 89.605Z" fill="black"/>
</svg>
